<?xml version="1.0" encoding="UTF-8"?><svg id="Layer_2" xmlns="http://www.w3.org/2000/svg" viewBox="0 0 59.68116 80.99972"><defs><style>.cls-1{fill:#fff;}</style></defs><g id="a"><path class="cls-1" d="m44.63694,38.34946l-.63,1.9-.05.15-7.96,24.12-19.67,6.55c-1.25.41-1.48,2.06-.44,2.8l-1.01-.63c-.42-.26-.74-.66-.9-1.13L.20694,30.93948c-.07-.18-.1-.36-.14-.54-.33-1.84.58-3.71,2.29-4.56l.98-.49c-1.75.97-1.3,3.64.71,3.96l38.84,6.16c.66.1,1.2.47,1.54,1.03.35.56.43,1.22.22,1.85l-.01-.00002Z"/><path class="cls-1" d="m36.40694,66.53945l-3.81,11.54c-.86,2.61-3.93,3.73-6.27,2.28l-8.13-5.05-.03-.02c-1.05-.75-.83-2.4.42-2.81l17.83-5.93-.00999-.01Z"/><path class="cls-1" d="m59.62694,4.87946l-7.74,52.96c-.23,1.59-1.34,2.91-2.87,3.42l-11,3.66.39-1.19,8.16-24.74c.83-2.49-.78-5.12-3.37-5.54L7.18694,27.73946c-2.02-.32-2.47-3.03-.68-3.97h0L53.53694.44945c3.06-1.52,6.58,1.03,6.1,4.43h-.01Z"/></g></svg>